<svg width="170" height="21" viewBox="0 0 170 21" fill="none" xmlns="http://www.w3.org/2000/svg">
<g clip-path="url(#clip0_166_841)">
<g clip-path="url(#clip1_166_841)">
<path d="M0.837286 3.76614C0.612648 4.0303 0.387352 4.29381 0.167984 4.55138C-0.262846 4.1166 -0.63834 3.73847 -1 3.37418C-0.083004 2.45586 0.852437 1.51976 1.77602 0.59552C2.70026 1.52174 3.63505 2.45784 4.55072 3.37549C4.19302 3.7332 3.81489 4.11067 3.40382 4.52174C3.16601 4.25626 2.91041 3.97101 2.59025 3.61462V7.40448C4.31555 5.67655 6.08234 3.90843 7.8386 2.14954C7.37549 2.14954 6.85112 2.11726 6.33333 2.15942C5.88472 2.19565 5.57115 2.04809 5.27866 1.71739C4.92358 1.3162 4.51976 0.957839 4.08235 0.527667C4.24769 0.515151 4.33794 0.502634 4.42885 0.502634C8.82148 0.501976 13.2141 0.499999 17.6067 0.502634C19.0086 0.503293 20.0079 1.48024 20.0099 2.87352C20.0171 7.2892 20.0125 11.7042 20.0125 16.1199C20.0125 16.1812 20.0059 16.2431 19.9209 16.363C19.5231 15.9466 19.143 15.5112 18.72 15.1219C18.4453 14.8689 18.3347 14.6054 18.357 14.2339C18.3887 13.7141 18.365 13.191 18.365 12.6746C16.6008 14.4407 14.8544 16.1884 13.112 17.9328H16.9091C16.554 17.643 16.2615 17.4045 15.9743 17.17C16.4453 16.7167 16.8287 16.3478 17.2016 15.9881C18.0837 16.8801 19.0152 17.8215 19.9401 18.7563C19.0441 19.6456 18.1047 20.5784 17.1752 21.5007C16.8261 21.1449 16.4545 20.7668 16.0586 20.3636C16.2813 20.1673 16.5349 19.9433 16.7885 19.7194C16.7727 19.6805 16.7569 19.6416 16.7404 19.6034H16.3775C12.0507 19.6034 7.72398 19.6047 3.39723 19.6028C2.21278 19.6028 1.35903 19.0283 1.03294 17.9835C0.943346 17.6963 0.917655 17.3801 0.916996 17.0764C0.90975 12.7708 0.912385 8.46509 0.912385 4.15942C0.912385 4.04348 0.912385 3.92688 0.912385 3.81094C0.886693 3.79578 0.861001 3.78129 0.83531 3.76614H0.837286ZM2.56258 16.6831C7.40975 11.8353 12.249 6.99473 17.0935 2.14954C16.4032 2.14954 15.6937 2.14361 14.9842 2.15678C14.8933 2.15876 14.7879 2.24177 14.7154 2.31423C10.7167 6.30896 6.72003 10.3063 2.72596 14.3063C2.65415 14.3788 2.57115 14.4842 2.56917 14.5751C2.55599 15.2839 2.56192 15.9928 2.56192 16.6825L2.56258 16.6831ZM18.365 3.45784C13.5296 8.29183 8.69499 13.1258 3.86693 17.9526C4.52569 17.9526 5.22464 17.9585 5.92358 17.9453C6.01449 17.9433 6.11858 17.857 6.19104 17.7839C10.1963 13.7826 14.1996 9.77866 18.1996 5.77273C18.2721 5.70026 18.3557 5.59486 18.357 5.50395C18.3702 4.80567 18.3643 4.10672 18.3643 3.45784H18.365ZM18.365 8.08762C15.0758 11.3742 11.7833 14.664 8.49144 17.9526C9.15876 17.9526 9.85705 17.9585 10.556 17.9453C10.6462 17.9433 10.749 17.8531 10.8221 17.78C13.2846 15.3221 15.7444 12.8617 18.2016 10.3986C18.2734 10.3261 18.3557 10.22 18.3577 10.1285C18.3709 9.42951 18.365 8.73057 18.365 8.08696V8.08762ZM2.56258 12.0231C5.861 8.72595 9.14624 5.44137 12.4387 2.14954C11.7793 2.14954 11.1028 2.14361 10.4262 2.15613C10.334 2.1581 10.2266 2.23518 10.1548 2.30632C7.67589 4.77997 5.20026 7.25626 2.72727 9.73518C2.65547 9.80764 2.5718 9.91238 2.56983 10.004C2.55665 10.6818 2.56258 11.3597 2.56258 12.0231Z" fill="#999999"/>
</g>
</g>
<path d="M28.123 5.2H29.544L33.107 15H31.861L31.133 12.998H26.534L25.813 15H24.56L28.123 5.2ZM26.968 11.822H30.699L28.83 6.705L26.968 11.822ZM34.3146 15V8H35.4906V8.875C35.7379 8.54833 36.0506 8.28933 36.4286 8.098C36.8066 7.902 37.2173 7.804 37.6606 7.804C37.9313 7.804 38.1926 7.839 38.4446 7.909L37.9686 9.085C37.7773 9.02433 37.5906 8.994 37.4086 8.994C37.0586 8.994 36.7366 9.08033 36.4426 9.253C36.1533 9.421 35.9223 9.64967 35.7496 9.939C35.5769 10.2283 35.4906 10.5503 35.4906 10.905V15H34.3146ZM42.0294 15.182C41.3854 15.182 40.7974 15.0163 40.2654 14.685C39.738 14.3537 39.3157 13.9103 38.9984 13.355C38.6857 12.795 38.5294 12.1767 38.5294 11.5C38.5294 10.9867 38.6204 10.5083 38.8024 10.065C38.9844 9.617 39.234 9.225 39.5514 8.889C39.8734 8.54833 40.2467 8.28233 40.6714 8.091C41.096 7.89967 41.5487 7.804 42.0294 7.804C42.5567 7.804 43.0397 7.91133 43.4784 8.126C43.9217 8.336 44.2997 8.63 44.6124 9.008C44.9297 9.386 45.1654 9.82467 45.3194 10.324C45.478 10.8233 45.5364 11.3577 45.4944 11.927H39.7824C39.8384 12.3237 39.969 12.6783 40.1744 12.991C40.3797 13.299 40.641 13.544 40.9584 13.726C41.2804 13.908 41.6374 14.0013 42.0294 14.006C42.4494 14.006 42.8297 13.8987 43.1704 13.684C43.511 13.4647 43.7864 13.166 43.9964 12.788L45.1934 13.068C44.9134 13.6887 44.491 14.1973 43.9264 14.594C43.3617 14.986 42.7294 15.182 42.0294 15.182ZM39.7474 11.003H44.3114C44.274 10.611 44.148 10.254 43.9334 9.932C43.7187 9.60533 43.4457 9.344 43.1144 9.148C42.783 8.952 42.4214 8.854 42.0294 8.854C41.6374 8.854 41.278 8.94967 40.9514 9.141C40.6247 9.33233 40.354 9.59133 40.1394 9.918C39.9294 10.24 39.7987 10.6017 39.7474 11.003ZM52.261 8H53.437V15H52.261L52.212 13.817C51.9926 14.223 51.6893 14.552 51.302 14.804C50.9193 15.056 50.462 15.182 49.93 15.182C49.4166 15.182 48.936 15.0863 48.488 14.895C48.04 14.699 47.6433 14.4307 47.298 14.09C46.9573 13.7447 46.6913 13.348 46.5 12.9C46.3086 12.452 46.213 11.969 46.213 11.451C46.213 10.9517 46.3063 10.4803 46.493 10.037C46.6796 9.59367 46.9386 9.20633 47.27 8.875C47.606 8.539 47.9933 8.27767 48.432 8.091C48.8706 7.89967 49.342 7.804 49.846 7.804C50.3966 7.804 50.8796 7.93467 51.295 8.196C51.7103 8.45267 52.0463 8.78633 52.303 9.197L52.261 8ZM49.909 14.041C50.371 14.041 50.77 13.929 51.106 13.705C51.4466 13.4763 51.708 13.1683 51.89 12.781C52.0766 12.3937 52.17 11.9667 52.17 11.5C52.17 11.024 52.0766 10.5947 51.89 10.212C51.7033 9.82467 51.4396 9.519 51.099 9.295C50.763 9.06633 50.3663 8.952 49.909 8.952C49.447 8.952 49.027 9.06633 48.649 9.295C48.271 9.52367 47.97 9.83167 47.746 10.219C47.5266 10.6017 47.417 11.0287 47.417 11.5C47.417 11.9713 47.5313 12.4007 47.76 12.788C47.9886 13.1707 48.292 13.4763 48.67 13.705C49.048 13.929 49.461 14.041 49.909 14.041Z" fill="#999999"/>
<defs>
<clipPath id="clip0_166_841">
<rect width="20" height="20" fill="white" transform="translate(0 0.5)"/>
</clipPath>
<clipPath id="clip1_166_841">
<rect width="21.0145" height="21" fill="white" transform="translate(-1 0.5)"/>
</clipPath>
</defs>
</svg>
