<svg width="18" height="16" viewBox="0 0 18 16" fill="none" xmlns="http://www.w3.org/2000/svg">
<path fill-rule="evenodd" clip-rule="evenodd" d="M17.3984 7.99999C17.3984 8.49705 16.9955 8.89999 16.4984 8.89999L3.73294 8.89999L8.72224 13.6512C9.08053 13.9958 9.0917 14.5655 8.74719 14.9238C8.40267 15.2821 7.83293 15.2933 7.47464 14.9487L0.874641 8.64874C0.698169 8.47905 0.598438 8.2448 0.598438 7.99999C0.598438 7.75517 0.698169 7.52092 0.874641 7.35124L7.47464 1.05124C7.83294 0.706725 8.40267 0.717896 8.74719 1.07619C9.0917 1.43449 9.08053 2.00422 8.72224 2.34874L3.73294 7.09999L16.4984 7.09999C16.9955 7.09999 17.3984 7.50293 17.3984 7.99999Z" fill="#808080"/>
</svg>
