<svg width="18" height="16" viewBox="0 0 18 16" fill="none" xmlns="http://www.w3.org/2000/svg">
<path fill-rule="evenodd" clip-rule="evenodd" d="M0.601562 8.00001C0.601562 7.50295 1.00451 7.10001 1.50156 7.10001L14.2671 7.10001L9.27776 2.34876C8.91947 2.00425 8.9083 1.43451 9.25281 1.07621C9.59733 0.717918 10.1671 0.706747 10.5254 1.05126L17.1254 7.35126C17.3018 7.52094 17.4016 7.75519 17.4016 8.00001C17.4016 8.24483 17.3018 8.47908 17.1254 8.64876L10.5254 14.9488C10.1671 15.2933 9.59733 15.2821 9.25281 14.9238C8.9083 14.5655 8.91947 13.9958 9.27776 13.6513L14.2671 8.90001L1.50156 8.90001C1.00451 8.90001 0.601562 8.49707 0.601562 8.00001Z" fill="white"/>
</svg>
