<svg width="170" height="21" viewBox="0 0 170 21" fill="none" xmlns="http://www.w3.org/2000/svg">
<g clip-path="url(#clip0_166_829)">
<g clip-path="url(#clip1_166_829)">
<path d="M0.270432 14.2616H10.111V16.0697H16.2625V14.2655H18.7064C18.8646 16.4158 18.8771 18.3304 16.6716 19.7897C16.6447 19.8075 16.623 19.8318 16.5633 19.885C16.8345 20.1102 17.1018 20.3329 17.3665 20.5529C17.0092 20.8944 16.7222 21.169 16.3932 21.4842C16.1029 21.1847 15.7889 20.8373 15.4467 20.5207C15.3462 20.4275 15.1683 20.3894 15.0224 20.3802C14.784 20.3657 14.5423 20.4045 14.302 20.4051C11.1067 20.4071 7.91145 20.4065 4.71554 20.4065C4.56251 20.4065 4.39897 20.436 4.25777 20.3933C3.83151 20.2652 3.56092 20.4629 3.3074 20.7683C3.09132 21.0284 2.84502 21.2629 2.61975 21.5007C2.31566 21.1808 2.04046 20.8918 1.73572 20.5707C1.93998 20.39 2.19941 20.1602 2.49102 19.9014C2.29004 19.7576 2.13964 19.6577 1.99712 19.5474C0.929186 18.7244 0.351873 17.6329 0.276343 16.2924C0.238906 15.6284 0.269775 14.9604 0.269775 14.2616H0.270432Z" fill="#999999"/>
<path d="M0.273589 9.28711C0.268335 9.16823 0.25914 9.06117 0.25914 8.95412C0.258483 7.21364 0.256513 5.47382 0.25914 3.73335C0.261767 1.82079 1.58913 0.486207 3.49905 0.499999C4.14007 0.504597 4.8008 0.491461 5.41686 0.63661C6.50975 0.894726 7.19806 1.65265 7.53039 2.72058C7.59476 2.92813 7.67817 3.02862 7.90607 3.09035C9.19205 3.43911 10.0945 4.64102 10.1109 5.98217C10.1135 6.19825 10.1109 6.41434 10.1109 6.64881H4.02382C3.73353 5.1139 4.56764 3.52974 6.3114 3.03518C6.15377 2.35016 5.47926 1.77219 4.77124 1.74723C4.23597 1.72818 3.69872 1.72621 3.16344 1.74723C2.24066 1.78335 1.49849 2.63061 1.49455 3.64665C1.48798 5.39763 1.49258 7.14928 1.49258 8.90026C1.49258 9.0198 1.49258 9.13933 1.49258 9.28645H0.272276L0.273589 9.28711Z" fill="#999999"/>
<path d="M10.0936 13.0327C9.96484 13.0327 9.8683 13.0327 9.77175 13.0327C6.64415 13.0327 3.51589 13.0334 0.388282 13.0321C-0.284921 13.0321 -0.768971 12.7135 -0.939078 12.1697C-1.19522 11.3514 -0.615283 10.5632 0.268748 10.5514C1.20926 10.5389 2.14978 10.5481 3.09029 10.5481C5.29971 10.5481 7.50847 10.5481 9.71789 10.5481C9.83611 10.5481 9.95434 10.5481 10.0936 10.5481V13.0321V13.0327Z" fill="#999999"/>
<path d="M15.0247 14.8711H11.3644C11.3585 14.7555 11.3486 14.6504 11.3486 14.5453C11.3473 13.2771 11.3473 12.0082 11.3486 10.7399C11.3493 9.82239 11.8504 9.31798 12.764 9.31404C13.1029 9.31272 13.4418 9.3055 13.7807 9.31601C14.5419 9.34031 15.0391 9.85194 15.0411 10.6151C15.045 11.9385 15.0424 13.2613 15.0411 14.5847C15.0411 14.6708 15.0319 14.7561 15.0247 14.8711Z" fill="#999999"/>
<path d="M16.2852 13.0209V10.5481C16.8802 10.5481 17.4667 10.5462 18.0526 10.5488C18.358 10.5501 18.6699 10.5251 18.9688 10.5744C19.621 10.6821 20.0452 11.2161 20.0183 11.8394C19.992 12.4508 19.5408 12.9756 18.9005 13.0091C18.0414 13.0544 17.1784 13.0203 16.2858 13.0203L16.2852 13.0209Z" fill="#999999"/>
</g>
</g>
<path d="M24.84 15V5.2H28.221C28.7063 5.2 29.1473 5.30033 29.544 5.501C29.9453 5.697 30.2627 5.984 30.496 6.362C30.7293 6.74 30.846 7.19267 30.846 7.72C30.846 8.00467 30.797 8.28 30.699 8.546C30.6057 8.80733 30.475 9.03367 30.307 9.225C30.1437 9.41167 29.957 9.53767 29.747 9.603C30.041 9.67767 30.2907 9.81067 30.496 10.002C30.7013 10.1887 30.867 10.408 30.993 10.66C31.1237 10.912 31.217 11.1757 31.273 11.451C31.329 11.7263 31.357 11.9923 31.357 12.249C31.357 12.7903 31.2333 13.2687 30.986 13.684C30.7433 14.0947 30.4167 14.4167 30.006 14.65C29.5953 14.8833 29.1427 15 28.648 15H24.84ZM26.016 13.964H28.543C28.865 13.964 29.1567 13.8823 29.418 13.719C29.684 13.551 29.8963 13.3223 30.055 13.033C30.2137 12.7437 30.293 12.417 30.293 12.053C30.293 11.731 30.2137 11.4277 30.055 11.143C29.8963 10.8537 29.684 10.6203 29.418 10.443C29.1567 10.2657 28.865 10.177 28.543 10.177H26.016V13.964ZM26.016 9.162H28.109C28.5383 9.162 28.9047 9.036 29.208 8.784C29.516 8.52733 29.67 8.17033 29.67 7.713C29.67 7.21833 29.516 6.84967 29.208 6.607C28.9047 6.35967 28.5383 6.236 28.109 6.236H26.016V9.162ZM38.0832 8H39.2592V15H38.0832L38.0342 13.817C37.8149 14.223 37.5116 14.552 37.1242 14.804C36.7416 15.056 36.2842 15.182 35.7522 15.182C35.2389 15.182 34.7582 15.0863 34.3102 14.895C33.8622 14.699 33.4656 14.4307 33.1202 14.09C32.7796 13.7447 32.5136 13.348 32.3222 12.9C32.1309 12.452 32.0352 11.969 32.0352 11.451C32.0352 10.9517 32.1286 10.4803 32.3152 10.037C32.5019 9.59367 32.7609 9.20633 33.0922 8.875C33.4282 8.539 33.8156 8.27767 34.2542 8.091C34.6929 7.89967 35.1642 7.804 35.6682 7.804C36.2189 7.804 36.7019 7.93467 37.1172 8.196C37.5326 8.45267 37.8686 8.78633 38.1252 9.197L38.0832 8ZM35.7312 14.041C36.1932 14.041 36.5922 13.929 36.9282 13.705C37.2689 13.4763 37.5302 13.1683 37.7122 12.781C37.8989 12.3937 37.9922 11.9667 37.9922 11.5C37.9922 11.024 37.8989 10.5947 37.7122 10.212C37.5256 9.82467 37.2619 9.519 36.9212 9.295C36.5852 9.06633 36.1886 8.952 35.7312 8.952C35.2692 8.952 34.8492 9.06633 34.4712 9.295C34.0932 9.52367 33.7922 9.83167 33.5682 10.219C33.3489 10.6017 33.2392 11.0287 33.2392 11.5C33.2392 11.9713 33.3536 12.4007 33.5822 12.788C33.8109 13.1707 34.1142 13.4763 34.4922 13.705C34.8702 13.929 35.2832 14.041 35.7312 14.041ZM44.2844 9.176H42.6954L42.6884 15H41.5124L41.5194 9.176H40.3154V8H41.5194L41.5124 5.802H42.6884L42.6954 8H44.2844V9.176ZM51.7272 10.646V15H50.5512V10.905C50.5512 10.5503 50.4649 10.2283 50.2922 9.939C50.1196 9.64967 49.8886 9.421 49.5992 9.253C49.3099 9.08033 48.9879 8.994 48.6332 8.994C48.2832 8.994 47.9612 9.08033 47.6672 9.253C47.3779 9.421 47.1469 9.64967 46.9742 9.939C46.8016 10.2283 46.7152 10.5503 46.7152 10.905V15H45.5392V4.5H46.7152V8.875C46.9626 8.54833 47.2752 8.28933 47.6532 8.098C48.0312 7.902 48.4419 7.804 48.8852 7.804C49.4079 7.804 49.8839 7.93233 50.3132 8.189C50.7472 8.441 51.0902 8.78167 51.3422 9.211C51.5989 9.64033 51.7272 10.1187 51.7272 10.646ZM53.1271 15V8H54.3031V8.875C54.5504 8.54833 54.8631 8.28933 55.2411 8.098C55.6191 7.902 56.0298 7.804 56.4731 7.804C56.7438 7.804 57.0051 7.839 57.2571 7.909L56.7811 9.085C56.5898 9.02433 56.4031 8.994 56.2211 8.994C55.8711 8.994 55.5491 9.08033 55.2551 9.253C54.9658 9.421 54.7348 9.64967 54.5621 9.939C54.3894 10.2283 54.3031 10.5503 54.3031 10.905V15H53.1271ZM60.8419 15.182C60.1979 15.182 59.6099 15.0163 59.0779 14.685C58.5505 14.3537 58.1282 13.9103 57.8109 13.355C57.4982 12.795 57.3419 12.1767 57.3419 11.5C57.3419 10.9867 57.4329 10.5083 57.6149 10.065C57.7969 9.617 58.0465 9.225 58.3639 8.889C58.6859 8.54833 59.0592 8.28233 59.4839 8.091C59.9085 7.89967 60.3612 7.804 60.8419 7.804C61.4859 7.804 62.0715 7.96967 62.5989 8.301C63.1309 8.63233 63.5532 9.078 63.8659 9.638C64.1832 10.198 64.3419 10.8187 64.3419 11.5C64.3419 12.0087 64.2509 12.4847 64.0689 12.928C63.8869 13.3713 63.6349 13.7633 63.3129 14.104C62.9955 14.44 62.6245 14.7037 62.1999 14.895C61.7799 15.0863 61.3272 15.182 60.8419 15.182ZM60.8419 14.006C61.2805 14.006 61.6749 13.8917 62.0249 13.663C62.3795 13.4297 62.6572 13.124 62.8579 12.746C63.0632 12.3633 63.1659 11.948 63.1659 11.5C63.1659 11.0427 63.0609 10.6227 62.8509 10.24C62.6455 9.85733 62.3679 9.55167 62.0179 9.323C61.6679 9.09433 61.2759 8.98 60.8419 8.98C60.4032 8.98 60.0089 9.09667 59.6589 9.33C59.3089 9.55867 59.0312 9.86433 58.8259 10.247C58.6205 10.6297 58.5179 11.0473 58.5179 11.5C58.5179 11.9667 58.6229 12.3913 58.8329 12.774C59.0429 13.152 59.3252 13.453 59.6799 13.677C60.0345 13.8963 60.4219 14.006 60.8419 14.006ZM68.5391 15.182C67.8951 15.182 67.3071 15.0163 66.7751 14.685C66.2478 14.3537 65.8255 13.9103 65.5081 13.355C65.1955 12.795 65.0391 12.1767 65.0391 11.5C65.0391 10.9867 65.1301 10.5083 65.3121 10.065C65.4941 9.617 65.7438 9.225 66.0611 8.889C66.3831 8.54833 66.7565 8.28233 67.1811 8.091C67.6058 7.89967 68.0585 7.804 68.5391 7.804C69.1831 7.804 69.7688 7.96967 70.2961 8.301C70.8281 8.63233 71.2505 9.078 71.5631 9.638C71.8805 10.198 72.0391 10.8187 72.0391 11.5C72.0391 12.0087 71.9481 12.4847 71.7661 12.928C71.5841 13.3713 71.3321 13.7633 71.0101 14.104C70.6928 14.44 70.3218 14.7037 69.8971 14.895C69.4771 15.0863 69.0245 15.182 68.5391 15.182ZM68.5391 14.006C68.9778 14.006 69.3721 13.8917 69.7221 13.663C70.0768 13.4297 70.3545 13.124 70.5551 12.746C70.7605 12.3633 70.8631 11.948 70.8631 11.5C70.8631 11.0427 70.7581 10.6227 70.5481 10.24C70.3428 9.85733 70.0651 9.55167 69.7151 9.323C69.3651 9.09433 68.9731 8.98 68.5391 8.98C68.1005 8.98 67.7061 9.09667 67.3561 9.33C67.0061 9.55867 66.7285 9.86433 66.5231 10.247C66.3178 10.6297 66.2151 11.0473 66.2151 11.5C66.2151 11.9667 66.3201 12.3913 66.5301 12.774C66.7401 13.152 67.0225 13.453 67.3771 13.677C67.7318 13.8963 68.1191 14.006 68.5391 14.006ZM73.1974 15V8H74.3734V8.875C74.6208 8.54833 74.9311 8.28933 75.3044 8.098C75.6824 7.902 76.0931 7.804 76.5364 7.804C77.0544 7.804 77.5281 7.93 77.9574 8.182C78.3868 8.434 78.7251 8.76767 78.9724 9.183C79.2198 8.76767 79.5558 8.434 79.9804 8.182C80.4098 7.93 80.8811 7.804 81.3944 7.804C81.9218 7.804 82.4001 7.93233 82.8294 8.189C83.2588 8.441 83.5994 8.78167 83.8514 9.211C84.1081 9.64033 84.2364 10.1187 84.2364 10.646V15H83.0604V10.926C83.0604 10.5807 82.9764 10.261 82.8084 9.967C82.6404 9.673 82.4141 9.43733 82.1294 9.26C81.8448 9.08267 81.5298 8.994 81.1844 8.994C80.8391 8.994 80.5241 9.078 80.2394 9.246C79.9548 9.40933 79.7284 9.638 79.5604 9.932C79.3924 10.2213 79.3084 10.5527 79.3084 10.926V15H78.1324V10.926C78.1324 10.5527 78.0484 10.2213 77.8804 9.932C77.7124 9.638 77.4838 9.40933 77.1944 9.246C76.9098 9.078 76.5948 8.994 76.2494 8.994C75.9088 8.994 75.5938 9.08267 75.3044 9.26C75.0198 9.43733 74.7934 9.673 74.6254 9.967C74.4574 10.261 74.3734 10.5807 74.3734 10.926V15H73.1974ZM87.7738 15.133C87.3958 15.119 87.0272 15.049 86.6678 14.923C86.3132 14.7923 86.0005 14.6173 85.7298 14.398C85.4638 14.174 85.2702 13.9173 85.1488 13.628L86.1568 13.194C86.2268 13.3527 86.3528 13.502 86.5348 13.642C86.7168 13.782 86.9268 13.894 87.1648 13.978C87.4028 14.062 87.6432 14.104 87.8858 14.104C88.1425 14.104 88.3828 14.0643 88.6068 13.985C88.8308 13.9057 89.0128 13.789 89.1528 13.635C89.2975 13.4763 89.3698 13.2873 89.3698 13.068C89.3698 12.8347 89.2905 12.6527 89.1318 12.522C88.9778 12.3867 88.7818 12.2817 88.5438 12.207C88.3105 12.1277 88.0725 12.053 87.8298 11.983C87.3492 11.8617 86.9198 11.717 86.5418 11.549C86.1638 11.3763 85.8652 11.1593 85.6458 10.898C85.4312 10.632 85.3238 10.2937 85.3238 9.883C85.3238 9.449 85.4428 9.07333 85.6808 8.756C85.9235 8.43867 86.2408 8.19367 86.6328 8.021C87.0248 7.84833 87.4448 7.762 87.8928 7.762C88.4575 7.762 88.9732 7.88333 89.4398 8.126C89.9065 8.36867 90.2542 8.69767 90.4828 9.113L89.5378 9.666C89.4585 9.498 89.3372 9.351 89.1738 9.225C89.0105 9.09433 88.8238 8.99167 88.6138 8.917C88.4038 8.84233 88.1892 8.80267 87.9698 8.798C87.6992 8.78867 87.4448 8.82367 87.2068 8.903C86.9735 8.98233 86.7845 9.10367 86.6398 9.267C86.4998 9.42567 86.4298 9.624 86.4298 9.862C86.4298 10.0953 86.5045 10.2727 86.6538 10.394C86.8078 10.5153 87.0062 10.6133 87.2488 10.688C87.4962 10.758 87.7645 10.8397 88.0538 10.933C88.4785 11.0683 88.8752 11.2247 89.2438 11.402C89.6125 11.5793 89.9088 11.801 90.1328 12.067C90.3615 12.333 90.4735 12.662 90.4688 13.054C90.4688 13.4833 90.3405 13.859 90.0838 14.181C89.8272 14.4983 89.4935 14.741 89.0828 14.909C88.6768 15.077 88.2405 15.1517 87.7738 15.133Z" fill="#999999"/>
<defs>
<clipPath id="clip0_166_829">
<rect width="20" height="20" fill="white" transform="translate(0 0.5)"/>
</clipPath>
<clipPath id="clip1_166_829">
<rect width="21.0171" height="21" fill="white" transform="translate(-1 0.5)"/>
</clipPath>
</defs>
</svg>
