<svg width="170" height="21" viewBox="0 0 170 21" fill="none" xmlns="http://www.w3.org/2000/svg">
<g clip-path="url(#clip0_166_820)">
<g clip-path="url(#clip1_166_820)">
<path d="M10.0119 17.9597C7.01369 17.9597 4.01627 17.9597 1.01806 17.9597C0.714934 17.9597 0.574786 18.0984 0.574786 18.3977C0.574786 18.4752 0.578723 18.5527 0.573999 18.6295C0.5677 18.7225 0.558252 18.8155 0.54093 18.9062C0.476368 19.2372 0.159068 19.5023 -0.220432 19.4984C-0.601507 19.4946 -0.917233 19.2116 -0.974709 18.8481C-0.988094 18.7628 -0.99518 18.6752 -0.99518 18.5891C-0.995967 16.8279 -1.00778 15.0659 -0.991243 13.3047C-0.981795 12.2783 -0.602295 11.3853 0.125212 10.6419C0.566913 10.1907 1.09207 9.86977 1.69282 9.66512C2.16522 9.50465 2.65338 9.45581 3.15098 9.45581C7.76246 9.45736 12.3739 9.45349 16.9854 9.45891C18.3365 9.46047 19.4309 9.9969 20.2419 11.0636C20.6403 11.5884 20.8781 12.1845 20.9592 12.8357C20.9867 13.055 20.9985 13.2783 20.9993 13.5C21.0025 15.2101 21.0017 16.9202 21.0009 18.6302C21.0009 18.8977 20.934 19.1411 20.7104 19.3178C20.4741 19.5047 20.2104 19.5535 19.9293 19.4395C19.66 19.3295 19.49 19.1271 19.4514 18.838C19.4317 18.6922 19.4341 18.5426 19.4301 18.3953C19.4238 18.1574 19.3238 18.014 19.1239 17.9698C19.0798 17.9597 19.0333 17.9605 18.9876 17.9605C15.9965 17.9605 13.0054 17.9605 10.0135 17.9605L10.0119 17.9597Z" fill="#999999"/>
<path d="M9.90295 2.5C11.8477 2.5 13.7916 2.5 15.7356 2.5C16.3867 2.5 16.9954 2.64341 17.5205 3.03953C18.1961 3.54884 18.5905 4.21938 18.6236 5.06124C18.6519 5.77519 18.6393 6.4907 18.6425 7.20543C18.6448 7.66589 18.6425 8.12636 18.6425 8.58682C18.6425 8.62791 18.6401 8.67132 18.6291 8.71085C18.5952 8.83566 18.5267 8.88527 18.3976 8.86124C18.2567 8.83488 18.1205 8.77829 17.9795 8.76279C17.6481 8.72713 17.3158 8.70233 16.9828 8.68527C16.7607 8.67364 16.6922 8.63411 16.6607 8.41938C16.56 7.73876 15.9198 7.12636 15.101 7.13566C14.1877 7.14574 13.2744 7.13798 12.3618 7.13798C11.6824 7.13798 11.1021 7.53643 10.8714 8.16434C10.8383 8.25426 10.8257 8.35194 10.8084 8.44651C10.7761 8.61628 10.7123 8.67984 10.5407 8.68217C10.1809 8.68605 9.82028 8.68605 9.46046 8.68217C9.29512 8.68062 9.22977 8.61628 9.19985 8.42791C9.15812 8.16357 9.05419 7.92791 8.88413 7.72093C8.57627 7.34574 8.17788 7.14186 7.68657 7.13953C6.74412 7.13488 5.80167 7.13721 4.85843 7.13876C4.06636 7.13953 3.44672 7.74884 3.34594 8.41783C3.31366 8.63411 3.24831 8.67209 3.02628 8.68605C2.65859 8.71008 2.2909 8.74419 1.924 8.78295C1.8114 8.79457 1.70354 8.84264 1.59174 8.86124C1.47127 8.88062 1.41537 8.84031 1.38151 8.72403C1.36813 8.67829 1.36183 8.62946 1.36183 8.5814C1.36104 7.47674 1.34608 6.37209 1.36498 5.26744C1.38466 4.11163 1.92714 3.26202 2.98849 2.74806C3.40893 2.54574 3.8648 2.5 4.32618 2.5C6.18511 2.5 8.04403 2.5 9.90295 2.5Z" fill="#999999"/>
</g>
</g>
<path d="M24.84 15V5.2H28.221C28.7063 5.2 29.1473 5.30033 29.544 5.501C29.9453 5.697 30.2627 5.984 30.496 6.362C30.7293 6.74 30.846 7.19267 30.846 7.72C30.846 8.00467 30.797 8.28 30.699 8.546C30.6057 8.80733 30.475 9.03367 30.307 9.225C30.1437 9.41167 29.957 9.53767 29.747 9.603C30.041 9.67767 30.2907 9.81067 30.496 10.002C30.7013 10.1887 30.867 10.408 30.993 10.66C31.1237 10.912 31.217 11.1757 31.273 11.451C31.329 11.7263 31.357 11.9923 31.357 12.249C31.357 12.7903 31.2333 13.2687 30.986 13.684C30.7433 14.0947 30.4167 14.4167 30.006 14.65C29.5953 14.8833 29.1427 15 28.648 15H24.84ZM26.016 13.964H28.543C28.865 13.964 29.1567 13.8823 29.418 13.719C29.684 13.551 29.8963 13.3223 30.055 13.033C30.2137 12.7437 30.293 12.417 30.293 12.053C30.293 11.731 30.2137 11.4277 30.055 11.143C29.8963 10.8537 29.684 10.6203 29.418 10.443C29.1567 10.2657 28.865 10.177 28.543 10.177H26.016V13.964ZM26.016 9.162H28.109C28.5383 9.162 28.9047 9.036 29.208 8.784C29.516 8.52733 29.67 8.17033 29.67 7.713C29.67 7.21833 29.516 6.84967 29.208 6.607C28.9047 6.35967 28.5383 6.236 28.109 6.236H26.016V9.162ZM35.5352 15.182C34.8912 15.182 34.3032 15.0163 33.7712 14.685C33.2439 14.3537 32.8216 13.9103 32.5042 13.355C32.1916 12.795 32.0352 12.1767 32.0352 11.5C32.0352 10.9867 32.1262 10.5083 32.3082 10.065C32.4902 9.617 32.7399 9.225 33.0572 8.889C33.3792 8.54833 33.7526 8.28233 34.1772 8.091C34.6019 7.89967 35.0546 7.804 35.5352 7.804C36.0626 7.804 36.5456 7.91133 36.9842 8.126C37.4276 8.336 37.8056 8.63 38.1182 9.008C38.4356 9.386 38.6712 9.82467 38.8252 10.324C38.9839 10.8233 39.0422 11.3577 39.0002 11.927H33.2882C33.3442 12.3237 33.4749 12.6783 33.6802 12.991C33.8856 13.299 34.1469 13.544 34.4642 13.726C34.7862 13.908 35.1432 14.0013 35.5352 14.006C35.9552 14.006 36.3356 13.8987 36.6762 13.684C37.0169 13.4647 37.2922 13.166 37.5022 12.788L38.6992 13.068C38.4192 13.6887 37.9969 14.1973 37.4322 14.594C36.8676 14.986 36.2352 15.182 35.5352 15.182ZM33.2532 11.003H37.8172C37.7799 10.611 37.6539 10.254 37.4392 9.932C37.2246 9.60533 36.9516 9.344 36.6202 9.148C36.2889 8.952 35.9272 8.854 35.5352 8.854C35.1432 8.854 34.7839 8.94967 34.4572 9.141C34.1306 9.33233 33.8599 9.59133 33.6452 9.918C33.4352 10.24 33.3046 10.6017 33.2532 11.003ZM45.7738 4.5H46.9498V15H45.7738V13.81C45.5358 14.2207 45.2162 14.552 44.8148 14.804C44.4135 15.056 43.9422 15.182 43.4008 15.182C42.8922 15.182 42.4162 15.0863 41.9728 14.895C41.5295 14.7037 41.1375 14.44 40.7968 14.104C40.4608 13.7633 40.1972 13.3713 40.0058 12.928C39.8145 12.4847 39.7188 12.0087 39.7188 11.5C39.7188 10.9913 39.8145 10.5153 40.0058 10.072C40.1972 9.624 40.4608 9.232 40.7968 8.896C41.1375 8.55533 41.5295 8.28933 41.9728 8.098C42.4162 7.90667 42.8922 7.811 43.4008 7.811C43.9422 7.811 44.4135 7.937 44.8148 8.189C45.2162 8.441 45.5358 8.77233 45.7738 9.183V4.5ZM43.4148 14.041C43.8768 14.041 44.2758 13.929 44.6118 13.705C44.9525 13.4763 45.2138 13.1683 45.3958 12.781C45.5825 12.3937 45.6758 11.9667 45.6758 11.5C45.6758 11.024 45.5825 10.5947 45.3958 10.212C45.2092 9.82467 44.9455 9.519 44.6048 9.295C44.2688 9.06633 43.8722 8.952 43.4148 8.952C42.9528 8.952 42.5328 9.06633 42.1548 9.295C41.7815 9.52367 41.4828 9.83167 41.2588 10.219C41.0348 10.6017 40.9228 11.0287 40.9228 11.5C40.9228 11.9713 41.0372 12.4007 41.2658 12.788C41.4945 13.1707 41.7978 13.4763 42.1758 13.705C42.5538 13.929 42.9668 14.041 43.4148 14.041ZM48.6291 15V8H49.8051V8.875C50.0524 8.54833 50.3651 8.28933 50.7431 8.098C51.1211 7.902 51.5317 7.804 51.9751 7.804C52.2457 7.804 52.5071 7.839 52.7591 7.909L52.2831 9.085C52.0917 9.02433 51.9051 8.994 51.7231 8.994C51.3731 8.994 51.0511 9.08033 50.7571 9.253C50.4677 9.421 50.2367 9.64967 50.0641 9.939C49.8914 10.2283 49.8051 10.5503 49.8051 10.905V15H48.6291ZM56.3438 15.182C55.6998 15.182 55.1118 15.0163 54.5798 14.685C54.0525 14.3537 53.6302 13.9103 53.3128 13.355C53.0002 12.795 52.8438 12.1767 52.8438 11.5C52.8438 10.9867 52.9348 10.5083 53.1168 10.065C53.2988 9.617 53.5485 9.225 53.8658 8.889C54.1878 8.54833 54.5612 8.28233 54.9858 8.091C55.4105 7.89967 55.8632 7.804 56.3438 7.804C56.9878 7.804 57.5735 7.96967 58.1008 8.301C58.6328 8.63233 59.0552 9.078 59.3678 9.638C59.6852 10.198 59.8438 10.8187 59.8438 11.5C59.8438 12.0087 59.7528 12.4847 59.5708 12.928C59.3888 13.3713 59.1368 13.7633 58.8148 14.104C58.4975 14.44 58.1265 14.7037 57.7018 14.895C57.2818 15.0863 56.8292 15.182 56.3438 15.182ZM56.3438 14.006C56.7825 14.006 57.1768 13.8917 57.5268 13.663C57.8815 13.4297 58.1592 13.124 58.3598 12.746C58.5652 12.3633 58.6678 11.948 58.6678 11.5C58.6678 11.0427 58.5628 10.6227 58.3528 10.24C58.1475 9.85733 57.8698 9.55167 57.5198 9.323C57.1698 9.09433 56.7778 8.98 56.3438 8.98C55.9052 8.98 55.5108 9.09667 55.1608 9.33C54.8108 9.55867 54.5332 9.86433 54.3278 10.247C54.1225 10.6297 54.0198 11.0473 54.0198 11.5C54.0198 11.9667 54.1248 12.3913 54.3348 12.774C54.5448 13.152 54.8272 13.453 55.1818 13.677C55.5365 13.8963 55.9238 14.006 56.3438 14.006ZM64.0411 15.182C63.3971 15.182 62.8091 15.0163 62.2771 14.685C61.7498 14.3537 61.3274 13.9103 61.0101 13.355C60.6974 12.795 60.5411 12.1767 60.5411 11.5C60.5411 10.9867 60.6321 10.5083 60.8141 10.065C60.9961 9.617 61.2458 9.225 61.5631 8.889C61.8851 8.54833 62.2584 8.28233 62.6831 8.091C63.1078 7.89967 63.5604 7.804 64.0411 7.804C64.6851 7.804 65.2708 7.96967 65.7981 8.301C66.3301 8.63233 66.7524 9.078 67.0651 9.638C67.3824 10.198 67.5411 10.8187 67.5411 11.5C67.5411 12.0087 67.4501 12.4847 67.2681 12.928C67.0861 13.3713 66.8341 13.7633 66.5121 14.104C66.1948 14.44 65.8238 14.7037 65.3991 14.895C64.9791 15.0863 64.5264 15.182 64.0411 15.182ZM64.0411 14.006C64.4798 14.006 64.8741 13.8917 65.2241 13.663C65.5788 13.4297 65.8564 13.124 66.0571 12.746C66.2624 12.3633 66.3651 11.948 66.3651 11.5C66.3651 11.0427 66.2601 10.6227 66.0501 10.24C65.8448 9.85733 65.5671 9.55167 65.2171 9.323C64.8671 9.09433 64.4751 8.98 64.0411 8.98C63.6024 8.98 63.2081 9.09667 62.8581 9.33C62.5081 9.55867 62.2304 9.86433 62.0251 10.247C61.8198 10.6297 61.7171 11.0473 61.7171 11.5C61.7171 11.9667 61.8221 12.3913 62.0321 12.774C62.2421 13.152 62.5244 13.453 62.8791 13.677C63.2338 13.8963 63.6211 14.006 64.0411 14.006ZM68.6994 15V8H69.8754V8.875C70.1227 8.54833 70.433 8.28933 70.8064 8.098C71.1844 7.902 71.595 7.804 72.0384 7.804C72.5564 7.804 73.03 7.93 73.4594 8.182C73.8887 8.434 74.227 8.76767 74.4744 9.183C74.7217 8.76767 75.0577 8.434 75.4824 8.182C75.9117 7.93 76.383 7.804 76.8964 7.804C77.4237 7.804 77.902 7.93233 78.3314 8.189C78.7607 8.441 79.1014 8.78167 79.3534 9.211C79.61 9.64033 79.7384 10.1187 79.7384 10.646V15H78.5624V10.926C78.5624 10.5807 78.4784 10.261 78.3104 9.967C78.1424 9.673 77.916 9.43733 77.6314 9.26C77.3467 9.08267 77.0317 8.994 76.6864 8.994C76.341 8.994 76.026 9.078 75.7414 9.246C75.4567 9.40933 75.2304 9.638 75.0624 9.932C74.8944 10.2213 74.8104 10.5527 74.8104 10.926V15H73.6344V10.926C73.6344 10.5527 73.5504 10.2213 73.3824 9.932C73.2144 9.638 72.9857 9.40933 72.6964 9.246C72.4117 9.078 72.0967 8.994 71.7514 8.994C71.4107 8.994 71.0957 9.08267 70.8064 9.26C70.5217 9.43733 70.2954 9.673 70.1274 9.967C69.9594 10.261 69.8754 10.5807 69.8754 10.926V15H68.6994ZM83.2758 15.133C82.8978 15.119 82.5291 15.049 82.1698 14.923C81.8151 14.7923 81.5024 14.6173 81.2318 14.398C80.9658 14.174 80.7721 13.9173 80.6508 13.628L81.6588 13.194C81.7288 13.3527 81.8548 13.502 82.0368 13.642C82.2188 13.782 82.4288 13.894 82.6668 13.978C82.9048 14.062 83.1451 14.104 83.3878 14.104C83.6444 14.104 83.8848 14.0643 84.1088 13.985C84.3328 13.9057 84.5148 13.789 84.6548 13.635C84.7994 13.4763 84.8718 13.2873 84.8718 13.068C84.8718 12.8347 84.7924 12.6527 84.6338 12.522C84.4798 12.3867 84.2838 12.2817 84.0458 12.207C83.8124 12.1277 83.5744 12.053 83.3318 11.983C82.8511 11.8617 82.4218 11.717 82.0438 11.549C81.6658 11.3763 81.3671 11.1593 81.1478 10.898C80.9331 10.632 80.8258 10.2937 80.8258 9.883C80.8258 9.449 80.9448 9.07333 81.1828 8.756C81.4254 8.43867 81.7428 8.19367 82.1348 8.021C82.5268 7.84833 82.9468 7.762 83.3948 7.762C83.9594 7.762 84.4751 7.88333 84.9418 8.126C85.4084 8.36867 85.7561 8.69767 85.9848 9.113L85.0398 9.666C84.9604 9.498 84.8391 9.351 84.6758 9.225C84.5124 9.09433 84.3258 8.99167 84.1158 8.917C83.9058 8.84233 83.6911 8.80267 83.4718 8.798C83.2011 8.78867 82.9468 8.82367 82.7088 8.903C82.4754 8.98233 82.2864 9.10367 82.1418 9.267C82.0018 9.42567 81.9318 9.624 81.9318 9.862C81.9318 10.0953 82.0064 10.2727 82.1558 10.394C82.3098 10.5153 82.5081 10.6133 82.7508 10.688C82.9981 10.758 83.2664 10.8397 83.5558 10.933C83.9804 11.0683 84.3771 11.2247 84.7458 11.402C85.1144 11.5793 85.4108 11.801 85.6348 12.067C85.8634 12.333 85.9754 12.662 85.9708 13.054C85.9708 13.4833 85.8424 13.859 85.5858 14.181C85.3291 14.4983 84.9954 14.741 84.5848 14.909C84.1788 15.077 83.7424 15.1517 83.2758 15.133Z" fill="#999999"/>
<defs>
<clipPath id="clip0_166_820">
<rect width="20" height="20" fill="white" transform="translate(0 0.5)"/>
</clipPath>
<clipPath id="clip1_166_820">
<rect width="22" height="17" fill="white" transform="translate(-1 2.5)"/>
</clipPath>
</defs>
</svg>
